<?xml version="1.0" standalone="no"?>
<!DOCTYPE svg PUBLIC "-//W3C//DTD SVG 20010904//EN"
 "http://www.w3.org/TR/2001/REC-SVG-20010904/DTD/svg10.dtd">
<svg version="1.0" xmlns="http://www.w3.org/2000/svg"
 width="4500.000000pt" height="1435.000000pt" viewBox="0 0 4500.000000 1435.000000"
 preserveAspectRatio="xMidYMid meet">

<g transform="translate(0.000000,1435.000000) scale(0.100000,-0.100000)"
fill="#000000" stroke="none">
<path d="M15391 13909 c-831 -74 -1380 -489 -1481 -1121 -20 -125 -8 -390 23
-509 88 -336 315 -577 703 -747 174 -77 386 -142 771 -237 213 -53 440 -112
503 -131 448 -134 633 -301 633 -574 0 -135 -46 -236 -150 -337 -56 -53 -187
-127 -278 -157 -162 -52 -430 -82 -645 -72 -504 23 -964 182 -1369 473 -15 11
-31 -19 -159 -305 l-141 -317 36 -30 c174 -145 494 -295 817 -385 298 -82 555
-114 921 -114 300 0 444 16 680 75 379 96 681 280 870 531 171 228 250 511
225 803 -31 342 -155 580 -401 765 -237 178 -506 282 -1109 430 -557 136 -743
197 -896 295 -278 178 -314 516 -80 751 109 110 264 179 491 220 153 27 496
26 670 -4 260 -43 489 -119 743 -245 78 -39 144 -68 146 -66 12 12 255 622
251 629 -9 15 -137 85 -250 137 -274 127 -620 215 -958 243 -147 12 -428 11
-566 -1z"/>
<path d="M29240 13914 c-163 -19 -221 -28 -330 -50 -255 -51 -566 -175 -789
-313 -537 -333 -896 -875 -1005 -1516 -43 -248 -41 -558 5 -825 194 -1141
1188 -1908 2419 -1867 668 22 1197 234 1600 642 l95 96 -80 76 c-44 42 -163
156 -265 254 l-185 176 -91 -86 c-330 -313 -725 -458 -1194 -437 -796 34
-1386 561 -1491 1331 -17 118 -17 389 -1 490 80 495 339 876 757 1113 147 83
313 142 508 179 144 28 517 25 650 -5 294 -65 519 -181 744 -381 56 -49 104
-95 108 -101 4 -6 105 82 232 202 124 117 245 230 267 250 l41 37 -95 96
c-330 335 -741 538 -1253 616 -98 16 -194 22 -372 24 -132 2 -256 1 -275 -1z"/>
<path d="M17440 13856 c0 -2 394 -655 875 -1452 l875 -1447 0 -779 0 -778 410
0 410 0 0 788 0 788 870 1438 c479 792 870 1440 870 1442 0 2 -181 4 -403 4
l-403 0 -658 -1085 c-362 -597 -661 -1083 -665 -1081 -3 2 -299 491 -656 1085
l-650 1081 -437 0 c-241 0 -438 -2 -438 -4z"/>
<path d="M22240 11630 l0 -2230 410 0 410 0 2 1510 3 1509 1229 -1509 1229
-1510 338 0 339 0 0 2230 0 2230 -410 0 -410 0 -2 -1509 -3 -1510 -1228 1510
-1229 1509 -339 0 -339 0 0 -2230z"/>
<path d="M567 13829 c-115 -27 -249 -131 -306 -238 -61 -115 -61 -113 -61
-1026 0 -683 3 -842 15 -898 36 -169 162 -308 325 -358 64 -19 118 -19 5711
-17 l5645 3 78 39 c137 67 235 192 265 334 8 36 11 322 11 900 0 932 2 905
-61 1023 -59 110 -159 193 -278 229 -62 20 -124 20 -5685 19 -3267 -1 -5637
-5 -5659 -10z"/>
<path d="M15391 8489 c-831 -74 -1380 -489 -1481 -1121 -20 -125 -8 -390 23
-509 88 -336 315 -577 703 -747 174 -77 386 -142 771 -237 213 -53 440 -112
503 -131 448 -134 633 -301 633 -574 0 -135 -46 -236 -150 -337 -56 -53 -187
-127 -278 -157 -162 -52 -430 -82 -645 -72 -504 23 -964 182 -1369 473 -15 11
-31 -19 -159 -305 l-141 -317 36 -30 c174 -145 494 -295 817 -385 298 -82 555
-114 921 -114 300 0 444 16 680 75 379 96 681 280 870 531 171 228 250 511
225 803 -31 342 -155 580 -401 765 -237 178 -506 282 -1109 430 -557 136 -743
197 -896 295 -278 178 -314 516 -80 751 109 110 264 179 491 220 153 27 496
26 670 -4 260 -43 489 -119 743 -245 78 -39 144 -68 146 -66 12 12 255 622
251 629 -9 15 -137 85 -250 137 -274 127 -620 215 -958 243 -147 12 -428 11
-566 -1z"/>
<path d="M28830 8489 c-476 -42 -891 -212 -1145 -468 -98 -99 -153 -173 -214
-291 -87 -168 -131 -349 -131 -539 0 -212 33 -369 110 -527 112 -230 283 -385
584 -529 182 -88 407 -160 776 -250 702 -171 896 -245 1048 -397 177 -177 172
-463 -12 -644 -250 -244 -865 -313 -1456 -163 -289 74 -571 200 -782 352 -43
31 -80 52 -83 48 -15 -25 -275 -616 -275 -625 1 -13 128 -106 217 -160 281
-168 709 -301 1135 -353 222 -27 626 -25 823 5 244 36 421 85 599 165 535 240
822 704 767 1244 -27 266 -107 453 -267 622 -229 242 -543 381 -1245 552 -184
44 -408 103 -499 130 -409 123 -597 276 -619 504 -10 108 3 185 45 274 89 185
293 306 600 357 152 26 474 26 634 1 281 -44 551 -133 806 -267 l111 -57 126
311 c70 171 127 316 127 321 0 13 -179 112 -286 159 -270 118 -599 199 -919
226 -139 11 -438 11 -575 -1z"/>
<path d="M33405 8485 c-229 -25 -460 -81 -663 -161 -808 -316 -1339 -1018
-1423 -1884 -14 -150 -7 -428 16 -580 60 -400 214 -761 460 -1075 79 -101 285
-302 391 -382 421 -314 949 -483 1514 -483 431 0 803 83 1166 260 235 116 427
253 607 435 513 520 732 1265 596 2027 -152 855 -753 1510 -1611 1758 -310 89
-713 122 -1053 85z m547 -720 c361 -54 643 -193 886 -434 212 -211 362 -508
417 -826 22 -125 30 -369 16 -485 -45 -367 -179 -662 -411 -904 -140 -146
-269 -240 -440 -320 -239 -111 -422 -150 -705 -150 -299 -1 -488 41 -740 163
-152 74 -265 155 -388 279 -215 215 -347 465 -414 781 -24 114 -27 147 -27
346 -1 193 2 234 22 330 100 478 378 851 788 1060 152 78 320 131 501 159 119
19 375 19 495 1z"/>
<path d="M42871 8489 c-586 -52 -1060 -287 -1294 -641 -142 -215 -199 -407
-198 -669 2 -390 118 -644 396 -868 219 -176 495 -284 1115 -437 511 -126 653
-170 812 -250 192 -97 290 -216 318 -389 14 -86 -4 -185 -47 -272 -57 -115
-200 -224 -368 -282 -160 -55 -444 -88 -665 -77 -497 25 -963 187 -1355 471
-20 14 -25 6 -163 -303 l-142 -317 33 -27 c173 -147 513 -306 839 -392 310
-82 552 -111 913 -110 218 0 283 4 405 23 443 68 753 203 992 429 249 236 372
520 371 852 -2 483 -216 813 -668 1030 -206 99 -410 163 -870 276 -411 100
-592 154 -728 214 -243 109 -357 241 -374 434 -18 218 105 409 332 517 180 85
340 114 635 113 179 0 238 -4 349 -23 265 -45 497 -122 748 -248 73 -37 134
-65 137 -62 2 2 61 143 130 314 l126 310 -22 17 c-44 35 -344 178 -444 212
-235 80 -501 135 -747 156 -147 12 -428 11 -566 -1z"/>
<path d="M18190 6210 l0 -2230 1670 0 1670 0 0 345 0 345 -1260 0 -1260 0 0
620 0 620 1075 0 1075 0 0 335 0 335 -1075 0 -1075 0 0 585 0 585 1215 0 1215
0 0 345 0 345 -1625 0 -1625 0 0 -2230z"/>
<path d="M22460 6210 l0 -2230 405 0 405 0 0 1510 c0 831 3 1510 8 1509 4 0
558 -678 1232 -1507 l1225 -1507 343 -3 342 -2 0 2230 0 2230 -410 0 -410 0
-2 -1511 -3 -1512 -1230 1512 -1230 1511 -337 0 -338 0 0 -2230z"/>
<path d="M37000 6211 l0 -2231 410 0 410 0 0 650 0 650 518 0 c286 0 552 2
593 5 l74 6 455 -655 455 -656 443 0 443 0 -19 28 c-10 15 -241 344 -511 731
-271 387 -489 706 -484 710 4 4 33 18 63 31 83 34 226 117 309 178 271 199
464 506 529 842 30 155 33 185 33 347 0 658 -309 1147 -884 1400 -177 78 -350
127 -589 165 -129 21 -167 22 -1190 25 l-1058 4 0 -2230z m2070 1514 c444 -63
727 -293 802 -651 30 -146 28 -337 -5 -464 -87 -335 -313 -529 -717 -618 -115
-25 -117 -25 -722 -29 l-608 -5 0 891 0 891 573 0 c452 0 594 -3 677 -15z"/>
<path d="M18202 2200 c-235 -32 -437 -187 -521 -399 -75 -191 -70 -424 12
-596 83 -173 203 -278 396 -347 82 -29 292 -37 395 -14 250 56 431 241 492
502 22 95 19 255 -6 360 -55 233 -233 415 -462 473 -91 23 -223 32 -306 21z
m280 -239 c159 -62 251 -227 251 -446 0 -151 -35 -258 -117 -351 -138 -157
-448 -163 -600 -11 -86 86 -129 208 -129 362 0 238 102 400 292 460 70 22 231
15 303 -14z"/>
<path d="M28492 2200 c-257 -36 -475 -219 -546 -459 -42 -144 -41 -311 4 -459
46 -156 173 -307 317 -380 119 -59 205 -75 366 -70 117 4 141 8 217 37 261 97
413 315 427 608 15 300 -116 536 -362 659 -111 55 -291 82 -423 64z m296 -250
c155 -71 233 -217 233 -435 0 -158 -42 -275 -129 -363 -149 -151 -458 -145
-598 12 -78 86 -109 166 -120 311 -7 92 12 211 47 291 24 54 95 133 146 165
69 43 141 59 248 56 89 -2 108 -6 173 -37z"/>
<path d="M33072 2200 c-235 -33 -437 -187 -520 -399 -39 -98 -52 -172 -52
-290 0 -120 20 -215 64 -306 82 -173 202 -278 395 -347 82 -29 292 -37 395
-14 224 50 411 222 476 437 43 142 45 315 4 459 -43 152 -173 312 -311 383
-127 66 -308 96 -451 77z m254 -230 c66 -23 113 -52 160 -99 81 -80 132 -249
120 -396 -11 -145 -42 -225 -120 -311 -141 -157 -448 -163 -600 -11 -86 86
-129 208 -129 362 0 238 103 401 292 459 71 22 206 20 277 -4z"/>
<path d="M37800 2200 c-358 -45 -590 -311 -591 -675 0 -117 12 -185 47 -277
71 -187 207 -311 419 -384 69 -23 101 -28 226 -32 125 -4 157 -1 229 17 87 22
190 65 241 101 l29 21 0 275 0 274 -225 0 -225 0 0 -79 c0 -107 5 -111 126
-111 l94 0 0 -124 0 -125 -57 -22 c-72 -28 -230 -37 -312 -19 -180 40 -306
189 -331 390 -22 184 24 343 127 441 94 89 171 119 307 119 111 0 172 -16 278
-70 57 -29 89 -40 105 -35 15 3 40 31 68 73 l44 67 -41 37 c-122 108 -352 165
-558 138z"/>
<path d="M14086 1532 c-142 -361 -260 -665 -263 -675 -5 -15 5 -17 104 -17
146 0 145 -1 212 184 l54 146 282 0 282 0 38 -107 c55 -156 81 -210 108 -217
12 -3 69 -6 126 -6 94 0 103 2 98 17 -3 10 -121 314 -263 675 l-259 658 -130
0 -130 0 -259 -658z m547 -27 l55 -150 -103 -3 c-57 -1 -153 -1 -214 0 l-109
3 89 244 c49 135 96 270 105 300 l16 56 53 -150 c29 -82 77 -217 108 -300z"/>
<path d="M15222 1733 c4 -397 7 -466 22 -518 41 -144 143 -268 270 -330 86
-42 152 -56 271 -56 161 0 255 30 365 117 107 84 173 215 190 376 5 51 10 267
10 481 l0 387 -130 0 -129 0 -3 -462 c-3 -447 -4 -465 -24 -508 -12 -25 -34
-60 -49 -78 -105 -125 -346 -129 -453 -7 -87 99 -96 167 -87 673 l8 382 -132
0 -132 0 3 -457z"/>
<path d="M16510 2084 l0 -106 205 7 205 8 0 -577 0 -576 124 0 124 0 0 153 c1
83 1 339 2 568 l0 417 200 7 200 7 0 99 0 99 -530 0 -530 0 0 -106z"/>
<path d="M19220 1515 l0 -675 110 0 111 0 -3 493 -3 493 111 -205 c60 -113
156 -293 213 -400 93 -174 107 -195 139 -208 46 -19 112 -10 140 20 11 12 110
193 221 401 110 209 202 380 203 382 2 1 2 -218 0 -487 l-3 -489 111 0 110 0
0 675 0 675 -118 0 c-110 0 -120 -2 -139 -22 -21 -24 -369 -675 -433 -811
l-37 -78 -40 83 c-64 130 -418 788 -437 809 -14 17 -30 19 -136 19 l-120 0 0
-675z"/>
<path d="M21096 1533 c-142 -362 -260 -666 -263 -676 -5 -15 5 -17 104 -17
140 0 148 5 192 131 18 50 41 116 52 145 l20 54 282 0 282 0 44 -123 c54 -148
77 -194 105 -201 12 -3 68 -6 125 -6 78 0 102 3 98 13 -2 6 -120 306 -261 665
-141 360 -256 658 -256 663 0 5 -60 9 -133 9 l-133 0 -258 -657z m547 -28 l55
-150 -103 -3 c-57 -1 -153 -1 -214 0 l-109 3 89 244 c49 135 96 270 105 300
l16 56 53 -150 c29 -82 77 -217 108 -300z"/>
<path d="M22030 2085 l0 -106 205 7 205 6 0 -576 0 -576 125 0 125 0 0 569 0
569 194 7 c107 4 199 4 204 1 6 -4 10 34 11 99 l2 105 -536 0 -535 0 0 -105z"/>
<path d="M23279 2146 c-4 -44 -4 -299 -1 -963 l2 -343 425 0 425 0 0 100 0
100 -300 0 -299 0 -3 88 c-2 48 -2 133 0 190 l3 102 235 0 234 0 0 100 0 100
-237 2 -238 3 1 80 c1 44 2 126 3 183 l1 102 300 0 300 0 0 100 0 100 -424 0
-424 0 -3 -44z"/>
<path d="M24350 1514 l0 -675 328 3 c363 4 383 7 522 75 108 52 215 158 269
267 60 118 76 189 76 331 0 337 -180 574 -494 654 -77 19 -112 21 -393 21
l-308 0 0 -676z m641 462 c192 -58 299 -223 299 -461 0 -143 -38 -258 -115
-343 -94 -105 -180 -132 -417 -132 l-158 0 0 475 0 475 173 0 c119 0 186 -5
218 -14z"/>
<path d="M26222 1515 l1 -675 114 0 114 0 -3 489 c-2 269 -2 488 -1 487 1 -1
96 -177 211 -391 182 -338 214 -392 243 -408 38 -20 96 -18 132 6 13 8 107
173 227 400 l205 386 3 -485 2 -484 110 0 110 0 0 675 0 675 -118 0 c-80 0
-123 -4 -134 -12 -15 -13 -433 -793 -458 -855 -7 -18 -16 -33 -20 -33 -4 0
-16 22 -27 48 -29 70 -443 836 -457 844 -6 4 -66 8 -133 8 l-123 0 2 -675z"/>
<path d="M29509 2158 c0 -18 -3 -322 -5 -675 l-5 -643 116 0 116 0 -3 470 c-2
258 0 466 3 462 4 -4 123 -155 264 -337 142 -181 301 -384 353 -450 51 -66
103 -125 115 -132 12 -7 59 -12 103 -13 l82 0 1 675 1 675 -116 0 -115 0 3
-468 3 -468 -180 230 c-99 127 -263 336 -365 466 l-186 235 -92 3 -92 3 -1
-33z"/>
<path d="M30950 1515 l0 -675 125 0 125 0 0 675 0 675 -125 0 -125 0 0 -675z"/>
<path d="M31380 2084 l0 -106 204 7 204 7 1 -143 c0 -79 0 -339 0 -576 l1
-433 125 0 125 0 0 569 0 569 194 7 c107 4 199 5 204 1 5 -3 10 39 11 99 l1
105 -535 0 -535 0 0 -106z"/>
<path d="M34090 1515 l0 -675 125 0 125 0 0 265 0 265 68 0 c37 0 78 -6 91
-13 15 -7 89 -109 180 -247 86 -129 167 -242 181 -252 22 -16 43 -18 153 -16
l128 3 -171 252 c-94 139 -187 268 -206 287 l-35 34 55 25 c158 73 244 216
234 392 -7 132 -80 239 -202 296 -108 50 -173 59 -463 59 l-263 0 0 -675z
m555 461 c86 -37 125 -98 125 -195 0 -91 -38 -157 -115 -196 -54 -28 -67 -30
-187 -34 l-128 -3 0 227 0 228 133 -5 c93 -4 144 -10 172 -22z"/>
<path d="M35290 1515 l0 -675 125 0 125 0 0 675 0 675 -125 0 -125 0 0 -675z"/>
<path d="M35849 2158 c0 -18 -3 -322 -5 -675 l-5 -643 116 0 116 0 -3 470 c-2
258 0 466 3 462 4 -4 123 -155 264 -337 142 -181 301 -384 353 -450 51 -66
103 -125 115 -132 12 -7 59 -12 103 -13 l82 0 1 675 1 675 -115 0 -116 0 3
-465 c2 -293 0 -461 -7 -454 -5 5 -169 213 -365 462 l-355 452 -93 3 -92 3 -1
-33z"/>
</g>
</svg>
